<svg width="185" height="127" viewBox="0 0 185 127" fill="none" xmlns="http://www.w3.org/2000/svg">
<path d="M108.78 34.9001C113.24 34.6601 117.72 34.7801 122.16 35.2901C127.7 35.9101 133.46 36.9001 137.68 38.4501C152.06 43.7101 162.23 39.1901 165.13 37.6101C165.63 37.3401 165.86 36.7601 165.68 36.2201C159.13 16.4001 134.76 1.69006 105.7 1.69006C88.1101 1.69006 72.2501 7.08006 61.0101 15.7201C46.4701 25.7701 33.3401 30.7301 21.5801 30.7301C21.2001 30.7301 20.8301 30.7301 20.4501 30.7101H20.3601C19.9801 30.7001 19.6001 30.6801 19.2201 30.6601C18.8501 30.6401 18.4801 30.6101 18.1101 30.5801C18.0701 30.5801 18.0501 30.5801 18.0201 30.5801C17.6901 30.5501 17.3701 30.5201 17.0401 30.4801C16.5701 30.4301 16.1101 30.3601 15.6501 30.2901C15.3001 30.2401 14.9501 30.1801 14.6001 30.1201C14.3501 30.0801 14.1001 30.0301 13.8501 29.9801C12.5501 29.7201 11.2701 29.4001 10.0101 29.0001C8.52008 28.5301 7.20008 28.0401 5.87008 27.4501C5.80008 27.4201 5.72008 27.3901 5.65008 27.3601C5.35008 27.2201 5.05008 27.0901 4.75008 26.9401C4.43008 26.7901 4.10008 26.6301 3.78008 26.4601C3.76008 26.4501 3.73008 26.4401 3.70008 26.4201C2.64008 25.8701 1.47008 26.8901 1.88008 28.0101C2.25008 29.0101 2.72008 30.1701 3.27008 31.4101C3.45008 31.8201 3.64008 32.2401 3.84008 32.6701C4.87008 34.8401 6.12008 37.1601 7.58008 39.1701C7.67008 39.3001 7.77008 39.4401 7.87008 39.5601C8.26008 40.0801 8.67008 40.5801 9.10008 41.0501C9.31008 41.2801 9.52008 41.5001 9.74008 41.7201C9.83008 41.8101 9.92008 41.9001 10.0101 41.9801C10.0501 42.0201 10.0901 42.0601 10.1401 42.1001L10.5901 42.5401L10.7601 42.6801L11.4401 43.1501C11.5601 43.2301 11.6801 43.3101 11.7901 43.3901C12.0501 43.5601 12.3101 43.7101 12.5701 43.8401C12.6601 43.8901 12.7501 43.9301 12.8401 43.9701C12.8601 43.9801 12.8901 43.9901 12.9101 44.0001C13.0001 44.0501 13.0901 44.0901 13.1801 44.1201C13.8201 44.3801 14.1301 45.0901 13.9001 45.7301L12.0801 50.6901C11.9201 51.1101 12.0001 51.5801 12.2701 51.9301C12.3801 52.0701 12.5001 52.2201 12.6401 52.3801C12.7001 52.4601 12.7701 52.5401 12.8401 52.6201C13.0101 52.8201 13.1901 53.0301 13.3901 53.2601C13.5201 53.4101 13.6601 53.5701 13.8101 53.7301C14.6501 54.6401 15.7001 55.6701 16.8201 56.5201C16.9401 56.6101 17.0601 56.6901 17.1701 56.7701C17.2901 56.8601 17.4201 56.9501 17.5501 57.0301C17.8001 57.2001 18.0601 57.3501 18.3101 57.4901C18.3501 57.5101 18.3901 57.5401 18.4301 57.5601C19.2701 58.0001 19.3801 59.1501 18.6401 59.7301C16.8501 61.1001 15.3001 62.5201 15.3401 63.2801C15.3401 63.3101 15.3401 63.3301 15.3501 63.3601C15.3501 63.4001 15.3601 63.4201 15.3801 63.4501L15.3901 63.4601C15.4701 63.5801 15.6601 63.6501 15.9801 63.6501C18.0301 63.6501 23.2801 62.5601 23.2801 62.5601C38.9801 59.2701 55.9401 51.6501 67.4601 45.7901C68.0701 45.4801 68.6901 45.1701 69.3101 44.8701C81.6301 38.9001 95.0901 35.6201 108.76 34.8801L108.78 34.9001Z" fill="white"/>
<path d="M183.36 67.21C183.28 66.54 182.91 65.95 182.38 65.55C181.38 64.81 179.2 63.26 175.06 60.6C168.81 56.58 167.3 43.93 167.3 43.93C167.09 41.6 166.65 39.32 165.97 37.09C165.88 36.8 165.79 36.49 165.69 36.2C165.87 36.73 165.63 37.31 165.14 37.59C162.25 39.18 152.07 43.7 137.69 38.43C127.8 34.81 109.51 34.27 105.37 34.2C104.88 34.2 104.44 33.88 104.29 33.42C103.75 31.86 102.39 28.87 99.19 26.78C98.61 26.4 95.34 24.33 91.85 24.77C86.75 25.41 82.23 29.63 81.51 37.57C81.47 37.95 81.27 38.29 80.94 38.49C76.78 40.94 48.43 57.3 23.32 62.56C23.32 62.56 21.61 62.91 19.76 63.22C20.76 63.11 21.88 63.03 23.06 63.07C31.09 63.34 39.3 70.09 38.48 73.76C37.9 76.36 32.76 77.48 28.76 77.97C27.68 78.1 27.22 79.44 28.02 80.19C30.61 82.61 34.31 85.25 39.13 86.44C50.65 89.31 61.54 82.22 63.36 85.1C63.83 85.84 63.81 87.44 60.63 91.41C58.57 93.9 55.64 98.06 53.97 103.86C52.53 108.88 52.3 114.17 53.12 114.37C53.76 114.54 54.35 111.38 57.4 107.5C57.84 106.93 63.46 99.93 67.48 101.3C67.76 101.4 68.46 101.64 68.89 102.3C69.83 103.75 68.75 106.14 67.53 108.08C66.82 109.21 68.08 110.54 69.24 109.9C69.68 109.65 70.17 109.37 70.71 109.03C71.31 108.66 71.72 108.59 71.98 108.74C72.93 109.31 71.76 112.9 71.4 114.09C70.71 116.38 70.09 119.58 70.07 124.05C70.07 125.43 71.94 125.87 72.53 124.62C76.04 117.25 82.25 107.11 92.98 98.23C97.89 94.17 103.67 89.37 112.55 86.5C132.06 80.19 147.97 89.14 166.28 83.36C169.94 82.2 173.38 79.52 177.58 76.53C183.11 72.59 183.55 68.96 183.35 67.21H183.36ZM101.18 35.37C101.18 35.37 101.16 35.37 101.15 35.37C100.48 35.5 99.82 35.13 99.55 34.51C99.08 33.45 98.25 32.07 96.79 31.04C96.43 30.78 94.43 29.4 92.29 29.69C89.38 30.09 86.77 32.58 86.08 37.23C85.99 37.84 85.53 38.33 84.92 38.44C84.91 38.44 84.9 38.44 84.89 38.44C84.14 38.58 83.44 37.97 83.49 37.21C84.51 23.74 99.24 24.76 102.08 33.84C102.29 34.52 101.88 35.23 101.18 35.36V35.37Z" fill="#111111"/>
<path d="M133.15 43.9401C144.55 47.3901 155.14 53.0601 164.51 60.4001C164.81 60.6301 165.11 60.8701 165.43 61.1201C166.25 61.8101 166.6 62.9101 166.32 63.9101C166.13 64.6101 165.68 65.0701 165.27 65.3601C164.52 65.8901 163.81 66.4701 163.24 67.1901C161.69 69.1301 160.98 70.6001 160.65 71.5301C160.16 72.9201 159.43 74.2101 158.38 75.2401C157.02 76.5901 154.97 78.0001 152.28 78.1701C146.98 78.5001 110.76 77.1301 110.76 77.1301C110.76 77.1301 105.49 77.3301 107.5 71.3001C108.51 68.2801 107.55 67.0201 106.23 66.1801C103.41 64.3801 100.91 63.0201 99.9002 59.8301C97.5202 51.6301 100.78 45.1101 107.31 42.1401C109.77 41.0201 112.48 40.6101 115.18 40.7101C120.61 40.9201 126.56 41.9501 133.13 43.9401H133.15Z" fill="white"/>
<path d="M124.29 58.2601C127.372 58.2601 129.87 55.7618 129.87 52.6801C129.87 49.5983 127.372 47.1001 124.29 47.1001C121.208 47.1001 118.71 49.5983 118.71 52.6801C118.71 55.7618 121.208 58.2601 124.29 58.2601Z" fill="#111111"/>
<path d="M38.4501 73.76C37.8701 76.36 32.7301 77.4801 28.7301 77.9701C27.6401 78.1001 27.1901 79.4401 27.9901 80.1901C30.5901 82.6101 34.2801 85.2401 39.1001 86.4401C50.6201 89.3101 61.5101 82.2201 63.3301 85.1001C63.8001 85.8401 63.7801 87.4401 60.6001 91.4101C58.5401 93.8901 55.6101 98.0601 53.9401 103.85C52.4901 108.87 52.2701 114.16 53.0801 114.37C53.7201 114.53 54.3101 111.38 57.3601 107.5C57.8101 106.93 63.4301 99.9401 67.4501 101.3C67.7301 101.4 68.4301 101.64 68.8701 102.3C69.8101 103.75 68.7401 106.14 67.5101 108.08C66.8001 109.21 68.0601 110.54 69.2201 109.9C69.6601 109.66 70.1501 109.37 70.6901 109.04C71.2901 108.67 71.7001 108.6 71.9601 108.75C72.9101 109.31 71.7401 112.91 71.3801 114.1C70.6901 116.39 70.0701 119.59 70.0501 124.06C70.0501 125.44 71.9201 125.88 72.5101 124.63C76.0201 117.27 82.2301 107.12 92.9601 98.2401C97.8701 94.1801 103.66 89.38 112.53 86.51C132.04 80.2 147.95 89.15 166.26 83.37C169.92 82.21 173.36 79.53 177.56 76.54C183.09 72.6 183.53 68.9701 183.33 67.2201C183.25 66.5501 182.88 65.9601 182.35 65.5601C181.35 64.8201 179.17 63.2701 175.03 60.6101C168.78 56.5901 167.27 43.9401 167.27 43.9401C167.06 41.6101 166.62 39.3301 165.94 37.1001C159.84 16.8401 135.17 1.68005 105.68 1.68005C88.0901 1.68005 72.2301 7.07006 60.9901 15.7101C38.5901 31.2001 19.5301 34.5801 3.68007 26.3901C2.62007 25.8401 1.44007 26.87 1.87007 27.98C3.73007 32.91 7.78007 41.91 13.1701 44.09C13.8101 44.35 14.1301 45.08 13.8901 45.73L12.0701 50.68C11.9101 51.1 11.9901 51.57 12.2701 51.93C13.2701 53.19 15.8001 56.1701 18.4301 57.5601C19.2601 58.0001 19.3801 59.15 18.6301 59.73C16.6901 61.22 15.0401 62.7501 15.3701 63.4601C15.8001 64.3701 19.1201 62.9501 23.0201 63.0801C31.0401 63.3501 39.2601 70.1001 38.4401 73.7701L38.4501 73.76Z" stroke="#111111" stroke-width="2.95" stroke-miterlimit="10"/>
</svg>
